<mxfile host="65bd71144e">
    <diagram id="3PKqEbrZAhHm8ldiFUMD" name="Page-1">
        <mxGraphModel dx="1065" dy="745" grid="1" gridSize="10" guides="1" tooltips="1" connect="1" arrows="1" fold="1" page="1" pageScale="1" pageWidth="850" pageHeight="1100" background="#ffffff" math="0" shadow="0">
            <root>
                <mxCell id="0"/>
                <mxCell id="1" parent="0"/>
                <mxCell id="2" value="" style="endArrow=none;html=1;fillColor=#0050ef;strokeColor=#001DBC;strokeWidth=10;startArrow=none;" edge="1" parent="1" source="58" target="3">
                    <mxGeometry width="50" height="50" relative="1" as="geometry">
                        <mxPoint x="810" y="90" as="sourcePoint"/>
                        <mxPoint x="810" as="targetPoint"/>
                    </mxGeometry>
                </mxCell>
                <mxCell id="3" value="hotfix" style="rounded=1;whiteSpace=wrap;html=1;fillColor=#0050ef;fontColor=#ffffff;strokeColor=#001DBC;fontSize=20;fontStyle=1" vertex="1" parent="1">
                    <mxGeometry x="290" y="60" width="120" height="60" as="geometry"/>
                </mxCell>
                <mxCell id="4" value="main" style="rounded=1;whiteSpace=wrap;html=1;fillColor=#0050ef;fontColor=#ffffff;strokeColor=#001DBC;fontSize=20;fontStyle=1" vertex="1" parent="1">
                    <mxGeometry x="40" y="180" width="120" height="60" as="geometry"/>
                </mxCell>
                <mxCell id="5" value="" style="endArrow=none;html=1;fillColor=#0050ef;strokeColor=#001DBC;strokeWidth=10;startArrow=none;" edge="1" target="4" parent="1" source="50">
                    <mxGeometry width="50" height="50" relative="1" as="geometry">
                        <mxPoint x="810" y="210" as="sourcePoint"/>
                        <mxPoint x="810" y="120" as="targetPoint"/>
                    </mxGeometry>
                </mxCell>
                <mxCell id="6" value="release" style="rounded=1;whiteSpace=wrap;html=1;fillColor=#0050ef;fontColor=#ffffff;strokeColor=#001DBC;fontSize=20;fontStyle=1" vertex="1" parent="1">
                    <mxGeometry x="290" y="330" width="120" height="60" as="geometry"/>
                </mxCell>
                <mxCell id="7" value="" style="endArrow=none;html=1;fillColor=#0050ef;strokeColor=#001DBC;strokeWidth=10;" edge="1" target="6" parent="1">
                    <mxGeometry width="50" height="50" relative="1" as="geometry">
                        <mxPoint x="810" y="360" as="sourcePoint"/>
                        <mxPoint x="810" y="280" as="targetPoint"/>
                    </mxGeometry>
                </mxCell>
                <mxCell id="8" value="develop" style="rounded=1;whiteSpace=wrap;html=1;fillColor=#0050ef;fontColor=#ffffff;strokeColor=#001DBC;fontSize=20;fontStyle=1" vertex="1" parent="1">
                    <mxGeometry x="40" y="490" width="120" height="60" as="geometry"/>
                </mxCell>
                <mxCell id="9" value="" style="endArrow=none;html=1;fillColor=#0050ef;strokeColor=#001DBC;strokeWidth=10;startArrow=none;" edge="1" target="8" parent="1" source="53">
                    <mxGeometry width="50" height="50" relative="1" as="geometry">
                        <mxPoint x="810" y="520" as="sourcePoint"/>
                        <mxPoint x="810" y="430" as="targetPoint"/>
                        <Array as="points"/>
                    </mxGeometry>
                </mxCell>
                <mxCell id="10" value="feature" style="rounded=1;whiteSpace=wrap;html=1;fillColor=#0050ef;fontColor=#ffffff;strokeColor=#001DBC;fontSize=20;fontStyle=1" vertex="1" parent="1">
                    <mxGeometry x="40" y="650" width="120" height="60" as="geometry"/>
                </mxCell>
                <mxCell id="11" value="" style="endArrow=none;html=1;strokeWidth=10;fillColor=#0050ef;strokeColor=#001DBC;startArrow=none;" edge="1" target="10" parent="1" source="43">
                    <mxGeometry width="50" height="50" relative="1" as="geometry">
                        <mxPoint x="810" y="680" as="sourcePoint"/>
                        <mxPoint x="800" y="590" as="targetPoint"/>
                    </mxGeometry>
                </mxCell>
                <mxCell id="12" value="Strategie de branches Gitflow" style="text;html=1;strokeColor=#001DBC;fillColor=#0050ef;align=center;verticalAlign=middle;whiteSpace=wrap;rounded=1;fontSize=20;fontColor=#ffffff;fontStyle=1" vertex="1" parent="1">
                    <mxGeometry width="300" height="30" as="geometry"/>
                </mxCell>
                <mxCell id="13" value="" style="endArrow=classic;html=1;fontSize=20;strokeWidth=5;strokeColor=#2D7600;fillColor=#60a917;" edge="1" parent="1">
                    <mxGeometry width="50" height="50" relative="1" as="geometry">
                        <mxPoint x="210" y="210" as="sourcePoint"/>
                        <mxPoint x="210" y="520" as="targetPoint"/>
                        <Array as="points">
                            <mxPoint x="210" y="410"/>
                        </Array>
                    </mxGeometry>
                </mxCell>
                <mxCell id="14" value="" style="endArrow=classic;html=1;fontSize=20;strokeColor=#2D7600;strokeWidth=5;fillColor=#60a917;startArrow=none;" edge="1" parent="1" source="48">
                    <mxGeometry width="50" height="50" relative="1" as="geometry">
                        <mxPoint x="240" y="520" as="sourcePoint"/>
                        <mxPoint x="240" y="680" as="targetPoint"/>
                        <Array as="points">
                            <mxPoint x="240" y="590"/>
                        </Array>
                    </mxGeometry>
                </mxCell>
                <mxCell id="15" value="" style="endArrow=classic;html=1;fontSize=20;strokeColor=#C73500;strokeWidth=5;fillColor=#fa6800;startArrow=none;" edge="1" parent="1" source="41">
                    <mxGeometry width="50" height="50" relative="1" as="geometry">
                        <mxPoint x="360" y="680" as="sourcePoint"/>
                        <mxPoint x="360" y="520" as="targetPoint"/>
                        <Array as="points"/>
                    </mxGeometry>
                </mxCell>
                <mxCell id="16" value="" style="endArrow=classic;html=1;fontSize=20;strokeColor=#2D7600;strokeWidth=5;fontColor=#00994D;fillColor=#60a917;" edge="1" parent="1">
                    <mxGeometry width="50" height="50" relative="1" as="geometry">
                        <mxPoint x="470" y="520" as="sourcePoint"/>
                        <mxPoint x="470" y="360" as="targetPoint"/>
                        <Array as="points"/>
                    </mxGeometry>
                </mxCell>
                <mxCell id="17" value="" style="endArrow=classic;html=1;fontSize=20;strokeColor=#C73500;strokeWidth=5;fillColor=#fa6800;" edge="1" parent="1">
                    <mxGeometry width="50" height="50" relative="1" as="geometry">
                        <mxPoint x="590" y="360" as="sourcePoint"/>
                        <mxPoint x="590" y="210" as="targetPoint"/>
                        <Array as="points"/>
                    </mxGeometry>
                </mxCell>
                <mxCell id="18" value="Release 1.0" style="rounded=1;whiteSpace=wrap;html=1;fontSize=12;" vertex="1" parent="1">
                    <mxGeometry x="435" y="315" width="80" height="30" as="geometry"/>
                </mxCell>
                <mxCell id="19" value="" style="endArrow=classic;html=1;fontSize=12;strokeColor=#000000;strokeWidth=5;exitX=0.5;exitY=0;exitDx=0;exitDy=0;entryX=0.5;entryY=1;entryDx=0;entryDy=0;" edge="1" parent="1" source="18" target="20">
                    <mxGeometry width="50" height="50" relative="1" as="geometry">
                        <mxPoint x="480" y="310" as="sourcePoint"/>
                        <mxPoint x="475" y="270" as="targetPoint"/>
                        <Array as="points"/>
                    </mxGeometry>
                </mxCell>
                <mxCell id="20" value="Production" style="text;html=1;strokeColor=none;fillColor=none;align=center;verticalAlign=middle;whiteSpace=wrap;rounded=0;fontSize=18;fontColor=#000000;fontStyle=1" vertex="1" parent="1">
                    <mxGeometry x="445" y="240" width="60" height="30" as="geometry"/>
                </mxCell>
                <mxCell id="21" value="Merge" style="text;html=1;strokeColor=none;fillColor=none;align=center;verticalAlign=middle;whiteSpace=wrap;rounded=0;fontSize=18;fontColor=#000000;fontStyle=1" vertex="1" parent="1">
                    <mxGeometry x="530" y="270" width="60" height="30" as="geometry"/>
                </mxCell>
                <mxCell id="22" value="Pull Request" style="text;html=1;strokeColor=none;fillColor=none;align=center;verticalAlign=middle;whiteSpace=wrap;rounded=0;fontSize=18;fontColor=#000000;fontStyle=1" vertex="1" parent="1">
                    <mxGeometry x="365" y="590" width="115" height="30" as="geometry"/>
                </mxCell>
                <mxCell id="23" value="Branch" style="text;html=1;strokeColor=none;fillColor=none;align=center;verticalAlign=middle;whiteSpace=wrap;rounded=0;fontSize=18;fontColor=#000000;fontStyle=1" vertex="1" parent="1">
                    <mxGeometry x="170" y="590" width="60" height="30" as="geometry"/>
                </mxCell>
                <mxCell id="24" value="Branch" style="text;html=1;align=center;verticalAlign=middle;whiteSpace=wrap;rounded=0;fontSize=18;fontStyle=1;fontColor=#000000;" vertex="1" parent="1">
                    <mxGeometry x="140" y="345" width="60" height="30" as="geometry"/>
                </mxCell>
                <mxCell id="25" value="Branch" style="text;html=1;strokeColor=none;fillColor=none;align=center;verticalAlign=middle;whiteSpace=wrap;rounded=0;fontSize=18;fontColor=#000000;fontStyle=1" vertex="1" parent="1">
                    <mxGeometry x="480" y="420" width="60" height="30" as="geometry"/>
                </mxCell>
                <mxCell id="26" value="" style="endArrow=classic;html=1;fontSize=20;strokeColor=#2D7600;strokeWidth=5;fillColor=#60a917;" edge="1" parent="1">
                    <mxGeometry width="50" height="50" relative="1" as="geometry">
                        <mxPoint x="690" y="210" as="sourcePoint"/>
                        <mxPoint x="690" y="90" as="targetPoint"/>
                        <Array as="points"/>
                    </mxGeometry>
                </mxCell>
                <mxCell id="27" value="" style="endArrow=classic;html=1;fontSize=20;strokeWidth=5;strokeColor=#C73500;fillColor=#fa6800;" edge="1" parent="1">
                    <mxGeometry width="50" height="50" relative="1" as="geometry">
                        <mxPoint x="650" y="210" as="sourcePoint"/>
                        <mxPoint x="650" y="520" as="targetPoint"/>
                        <Array as="points">
                            <mxPoint x="650" y="410"/>
                        </Array>
                    </mxGeometry>
                </mxCell>
                <mxCell id="28" value="Merge" style="text;html=1;strokeColor=none;fillColor=none;align=center;verticalAlign=middle;whiteSpace=wrap;rounded=0;fontSize=18;fontColor=#000000;fontStyle=1" vertex="1" parent="1">
                    <mxGeometry x="660" y="270" width="60" height="30" as="geometry"/>
                </mxCell>
                <mxCell id="29" value="Tag 1.0" style="rounded=1;whiteSpace=wrap;html=1;fontSize=12;" vertex="1" parent="1">
                    <mxGeometry x="550" y="170" width="70" height="30" as="geometry"/>
                </mxCell>
                <mxCell id="31" value="" style="endArrow=classic;html=1;fontSize=20;strokeWidth=5;strokeColor=#C73500;fillColor=#fa6800;" edge="1" parent="1">
                    <mxGeometry width="50" height="50" relative="1" as="geometry">
                        <mxPoint x="760" y="90" as="sourcePoint"/>
                        <mxPoint x="760" y="210" as="targetPoint"/>
                        <Array as="points"/>
                    </mxGeometry>
                </mxCell>
                <mxCell id="32" value="" style="endArrow=classic;html=1;fontSize=20;strokeWidth=5;strokeColor=#C73500;fillColor=#fa6800;" edge="1" parent="1">
                    <mxGeometry width="50" height="50" relative="1" as="geometry">
                        <mxPoint x="800" y="205" as="sourcePoint"/>
                        <mxPoint x="800" y="515" as="targetPoint"/>
                        <Array as="points">
                            <mxPoint x="800" y="295"/>
                            <mxPoint x="800" y="405"/>
                        </Array>
                    </mxGeometry>
                </mxCell>
                <mxCell id="33" value="Branch" style="text;html=1;strokeColor=none;fillColor=none;align=center;verticalAlign=middle;whiteSpace=wrap;rounded=0;fontSize=18;fontColor=#000000;fontStyle=1" vertex="1" parent="1">
                    <mxGeometry x="620" y="120" width="60" height="30" as="geometry"/>
                </mxCell>
                <mxCell id="34" value="Fix 1.2" style="rounded=1;whiteSpace=wrap;html=1;fontSize=12;" vertex="1" parent="1">
                    <mxGeometry x="650" y="50" width="70" height="30" as="geometry"/>
                </mxCell>
                <mxCell id="35" value="Tag 1.2" style="rounded=1;whiteSpace=wrap;html=1;fontSize=12;" vertex="1" parent="1">
                    <mxGeometry x="720" y="220" width="70" height="30" as="geometry"/>
                </mxCell>
                <mxCell id="37" value="" style="endArrow=classic;html=1;fontSize=12;strokeColor=#000000;strokeWidth=5;exitX=0.5;exitY=0;exitDx=0;exitDy=0;" edge="1" parent="1" source="34">
                    <mxGeometry width="50" height="50" relative="1" as="geometry">
                        <mxPoint x="485" y="325" as="sourcePoint"/>
                        <mxPoint x="685" y="20" as="targetPoint"/>
                        <Array as="points"/>
                    </mxGeometry>
                </mxCell>
                <mxCell id="38" value="Production" style="text;html=1;strokeColor=none;fillColor=none;align=center;verticalAlign=middle;whiteSpace=wrap;rounded=0;fontSize=18;fontColor=#000000;fontStyle=1" vertex="1" parent="1">
                    <mxGeometry x="655" width="60" height="30" as="geometry"/>
                </mxCell>
                <mxCell id="39" value="Merge" style="text;html=1;strokeColor=none;fillColor=none;align=center;verticalAlign=middle;whiteSpace=wrap;rounded=0;fontSize=18;fontColor=#000000;fontStyle=1" vertex="1" parent="1">
                    <mxGeometry x="740" y="410" width="60" height="30" as="geometry"/>
                </mxCell>
                <mxCell id="40" value="Merge" style="text;html=1;strokeColor=none;fillColor=none;align=center;verticalAlign=middle;whiteSpace=wrap;rounded=0;fontSize=18;fontColor=#000000;fontStyle=1" vertex="1" parent="1">
                    <mxGeometry x="760" y="130" width="60" height="30" as="geometry"/>
                </mxCell>
                <mxCell id="42" value="" style="ellipse;whiteSpace=wrap;html=1;aspect=fixed;fontSize=18;fontColor=#000000;" vertex="1" parent="1">
                    <mxGeometry x="290" y="690" as="geometry"/>
                </mxCell>
                <mxCell id="43" value="" style="ellipse;whiteSpace=wrap;html=1;aspect=fixed;fontSize=18;fontColor=#000000;" vertex="1" parent="1">
                    <mxGeometry x="250" y="670" width="20" height="20" as="geometry"/>
                </mxCell>
                <mxCell id="44" value="" style="endArrow=none;html=1;strokeWidth=10;fillColor=#0050ef;strokeColor=#001DBC;startArrow=none;" edge="1" parent="1" source="46" target="43">
                    <mxGeometry width="50" height="50" relative="1" as="geometry">
                        <mxPoint x="810" y="680" as="sourcePoint"/>
                        <mxPoint x="160" y="680" as="targetPoint"/>
                    </mxGeometry>
                </mxCell>
                <mxCell id="45" value="" style="endArrow=none;html=1;strokeWidth=10;fillColor=#0050ef;strokeColor=#001DBC;" edge="1" parent="1" target="41">
                    <mxGeometry width="50" height="50" relative="1" as="geometry">
                        <mxPoint x="810" y="680" as="sourcePoint"/>
                        <mxPoint x="270" y="680" as="targetPoint"/>
                    </mxGeometry>
                </mxCell>
                <mxCell id="46" value="" style="ellipse;whiteSpace=wrap;html=1;aspect=fixed;fontSize=18;fontColor=#000000;" vertex="1" parent="1">
                    <mxGeometry x="300" y="670" width="20" height="20" as="geometry"/>
                </mxCell>
                <mxCell id="47" value="" style="endArrow=none;html=1;strokeWidth=10;fillColor=#0050ef;strokeColor=#001DBC;startArrow=none;" edge="1" parent="1" source="41" target="46">
                    <mxGeometry width="50" height="50" relative="1" as="geometry">
                        <mxPoint x="320" y="680" as="sourcePoint"/>
                        <mxPoint x="270" y="680" as="targetPoint"/>
                    </mxGeometry>
                </mxCell>
                <mxCell id="49" value="" style="endArrow=none;html=1;fontSize=20;strokeColor=#2D7600;strokeWidth=5;fillColor=#60a917;" edge="1" parent="1" target="48">
                    <mxGeometry width="50" height="50" relative="1" as="geometry">
                        <mxPoint x="240" y="520" as="sourcePoint"/>
                        <mxPoint x="240" y="680" as="targetPoint"/>
                        <Array as="points"/>
                    </mxGeometry>
                </mxCell>
                <mxCell id="50" value="" style="ellipse;whiteSpace=wrap;html=1;aspect=fixed;fontSize=18;fontColor=#000000;" vertex="1" parent="1">
                    <mxGeometry x="200" y="200" width="20" height="20" as="geometry"/>
                </mxCell>
                <mxCell id="51" value="" style="endArrow=none;html=1;fillColor=#0050ef;strokeColor=#001DBC;strokeWidth=10;" edge="1" parent="1" target="50">
                    <mxGeometry width="50" height="50" relative="1" as="geometry">
                        <mxPoint x="810" y="210" as="sourcePoint"/>
                        <mxPoint x="160" y="210" as="targetPoint"/>
                    </mxGeometry>
                </mxCell>
                <mxCell id="41" value="" style="ellipse;whiteSpace=wrap;html=1;aspect=fixed;fontSize=18;fontColor=#000000;" vertex="1" parent="1">
                    <mxGeometry x="350" y="670" width="20" height="20" as="geometry"/>
                </mxCell>
                <mxCell id="52" value="" style="endArrow=none;html=1;fontSize=20;strokeColor=#C73500;strokeWidth=5;fillColor=#fa6800;" edge="1" parent="1" target="41">
                    <mxGeometry width="50" height="50" relative="1" as="geometry">
                        <mxPoint x="360" y="680" as="sourcePoint"/>
                        <mxPoint x="360" y="520" as="targetPoint"/>
                        <Array as="points"/>
                    </mxGeometry>
                </mxCell>
                <mxCell id="54" value="" style="endArrow=none;html=1;fillColor=#0050ef;strokeColor=#001DBC;strokeWidth=10;" edge="1" parent="1" target="53">
                    <mxGeometry width="50" height="50" relative="1" as="geometry">
                        <mxPoint x="810" y="520" as="sourcePoint"/>
                        <mxPoint x="160" y="520" as="targetPoint"/>
                        <Array as="points">
                            <mxPoint x="230" y="520"/>
                        </Array>
                    </mxGeometry>
                </mxCell>
                <mxCell id="53" value="" style="ellipse;whiteSpace=wrap;html=1;aspect=fixed;fontSize=18;fontColor=#000000;" vertex="1" parent="1">
                    <mxGeometry x="460" y="510" width="20" height="20" as="geometry"/>
                </mxCell>
                <mxCell id="56" value="" style="ellipse;whiteSpace=wrap;html=1;aspect=fixed;fontSize=18;fontColor=#000000;" vertex="1" parent="1">
                    <mxGeometry x="580" y="350" width="20" height="20" as="geometry"/>
                </mxCell>
                <mxCell id="48" value="" style="ellipse;whiteSpace=wrap;html=1;aspect=fixed;fontSize=18;fontColor=#000000;" vertex="1" parent="1">
                    <mxGeometry x="230" y="510" width="20" height="20" as="geometry"/>
                </mxCell>
                <mxCell id="57" value="" style="ellipse;whiteSpace=wrap;html=1;aspect=fixed;fontSize=18;fontColor=#000000;" vertex="1" parent="1">
                    <mxGeometry x="640" y="200" width="20" height="20" as="geometry"/>
                </mxCell>
                <mxCell id="58" value="" style="ellipse;whiteSpace=wrap;html=1;aspect=fixed;fontSize=18;fontColor=#000000;" vertex="1" parent="1">
                    <mxGeometry x="750" y="80" width="20" height="20" as="geometry"/>
                </mxCell>
                <mxCell id="59" value="" style="endArrow=none;html=1;fillColor=#0050ef;strokeColor=#001DBC;strokeWidth=10;" edge="1" parent="1" target="58">
                    <mxGeometry width="50" height="50" relative="1" as="geometry">
                        <mxPoint x="810" y="90" as="sourcePoint"/>
                        <mxPoint x="410" y="90" as="targetPoint"/>
                    </mxGeometry>
                </mxCell>
                <mxCell id="60" value="" style="ellipse;whiteSpace=wrap;html=1;aspect=fixed;fontSize=18;fontColor=#000000;" vertex="1" parent="1">
                    <mxGeometry x="790" y="200" width="20" height="20" as="geometry"/>
                </mxCell>
            </root>
        </mxGraphModel>
    </diagram>
</mxfile>